<?xml version="1.0" encoding="UTF-8"?>
<svg width="13px" height="13px" viewBox="0 0 13 13" version="1.1" xmlns="http://www.w3.org/2000/svg" xmlns:xlink="http://www.w3.org/1999/xlink">
    <!-- Generator: Sketch 48.2 (47327) - http://www.bohemiancoding.com/sketch -->
    <title>Fill 26 Copy</title>
    <desc>Created with Sketch.</desc>
    <defs></defs>
    <g id="Desktop-Copy" stroke="none" stroke-width="1" fill="none" fill-rule="evenodd" transform="translate(-459.000000, -675.000000)">
        <g id="Player-Bar" transform="translate(0.000000, 650.000000)" fill="#34CFBD">
            <g id="Player-tools" transform="translate(459.000000, 10.000000)">
                <path d="M0.10573486,27.9658172 C0.18116355,28.0109397 0.27208206,27.9658172 0.37781692,27.8594088 L6.36429571,21.8736035 C6.40941823,21.828481 6.45454074,21.7678687 6.48484691,21.7072563 L6.48484691,27.7085515 C6.48484691,27.8445925 6.51515309,27.935511 6.59058177,27.9658172 C6.66668394,28.0109397 6.75692897,27.9658172 6.86266383,27.8594088 L12.8491426,21.8736035 C12.9548775,21.7678687 13,21.646644 13,21.4957866 C13,21.3442558 12.9548775,21.2237046 12.8491426,21.1179697 L6.86266383,15.1314909 C6.75692897,15.0109397 6.66668394,14.9806335 6.59058177,15.0109397 C6.51515309,15.0560622 6.48484691,15.1314909 6.48484691,15.2830218 L6.48484691,21.2688271 C6.45454074,21.2082147 6.40941823,21.1630922 6.36429571,21.1179697 L0.37781692,15.1314909 C0.27208206,15.0109397 0.18116355,14.9806335 0.10573486,15.0109397 C0.03030617,15.0560622 0,15.1314909 0,15.2830218 L0,27.7085515 C0,27.8445925 0.03030617,27.935511 0.10573486,27.9658172" id="Fill-26-Copy" transform="translate(6.500000, 21.491610) rotate(-180.000000) translate(-6.500000, -21.491610) "></path>
            </g>
        </g>
    </g>
</svg>