<?xml version="1.0" encoding="UTF-8"?>
<svg width="13px" height="13px" viewBox="0 0 13 13" version="1.1" xmlns="http://www.w3.org/2000/svg" xmlns:xlink="http://www.w3.org/1999/xlink">
    <!-- Generator: Sketch 48.2 (47327) - http://www.bohemiancoding.com/sketch -->
    <title>Fill 26</title>
    <desc>Created with Sketch.</desc>
    <defs></defs>
    <g id="Desktop-Copy" stroke="none" stroke-width="1" fill="none" fill-rule="evenodd" transform="translate(-547.000000, -675.000000)">
        <g id="Player-Bar" transform="translate(0.000000, 650.000000)" fill="#34CFBD">
            <g id="Player-tools" transform="translate(459.000000, 10.000000)">
                <path d="M88.1057349,27.9658172 C88.1811635,28.0109397 88.2720821,27.9658172 88.3778169,27.8594088 L94.3642957,21.8736035 C94.4094182,21.828481 94.4545407,21.7678687 94.4848469,21.7072563 L94.4848469,27.7085515 C94.4848469,27.8445925 94.5151531,27.935511 94.5905818,27.9658172 C94.6666839,28.0109397 94.756929,27.9658172 94.8626638,27.8594088 L100.849143,21.8736035 C100.954877,21.7678687 101,21.646644 101,21.4957866 C101,21.3442558 100.954877,21.2237046 100.849143,21.1179697 L94.8626638,15.1314909 C94.756929,15.0109397 94.6666839,14.9806335 94.5905818,15.0109397 C94.5151531,15.0560622 94.4848469,15.1314909 94.4848469,15.2830218 L94.4848469,21.2688271 C94.4545407,21.2082147 94.4094182,21.1630922 94.3642957,21.1179697 L88.3778169,15.1314909 C88.2720821,15.0109397 88.1811635,14.9806335 88.1057349,15.0109397 C88.0303062,15.0560622 88,15.1314909 88,15.2830218 L88,27.7085515 C88,27.8445925 88.0303062,27.935511 88.1057349,27.9658172" id="Fill-26"></path>
            </g>
        </g>
    </g>
</svg>