<?xml version="1.0" encoding="UTF-8"?>
<svg width="9px" height="10px" viewBox="0 0 9 10" version="1.1" xmlns="http://www.w3.org/2000/svg" xmlns:xlink="http://www.w3.org/1999/xlink">
    <!-- Generator: Sketch 48.2 (47327) - http://www.bohemiancoding.com/sketch -->
    <title>Fill 84</title>
    <desc>Created with Sketch.</desc>
    <defs></defs>
    <g id="Page-1" stroke="none" stroke-width="1" fill="none" fill-rule="evenodd">
        <path d="M0.0821997587,9.88303182 C0.134448188,9.96464962 0.194018054,10 0.268896377,10 L2.39777029,10 C2.47231582,10 2.53221848,9.96464962 2.58446691,9.88303182 C2.63671534,9.80141402 2.66666667,9.69640258 2.66666667,9.59139114 L2.66666667,0.420045748 C2.66666667,0.303077563 2.63671534,0.210022874 2.58446691,0.128405074 C2.53221848,0.0462674153 2.47231582,0 2.39777029,0 L0.268896377,0 C0.194018054,0 0.134448188,0.0462674153 0.0821997587,0.128405074 C0.0299513291,0.210022874 0,0.303077563 0,0.420045748 L0,9.59139114 C0,9.69640258 0.0299513291,9.80141402 0.0821997587,9.88303182 L0.0821997587,9.88303182 Z M5.52728181,9.88303182 C5.57953024,9.96464962 5.6394329,10 5.71431122,10 L7.84318514,10 C7.91773067,10 7.97763333,9.96464962 8.02988176,9.88303182 C8.08213018,9.80141402 8.11208151,9.69640258 8.11208151,9.59139114 L8.11208151,0.420045748 C8.11208151,0.303077563 8.08213018,0.210022874 8.02988176,0.128405074 C7.97763333,0.0462674153 7.91773067,0 7.84318514,0 L5.71431122,0 C5.6394329,0 5.57953024,0.0462674153 5.52728181,0.128405074 C5.47503338,0.210022874 5.44541485,0.303077563 5.44541485,0.420045748 L5.44541485,9.59139114 C5.44541485,9.69640258 5.47503338,9.80141402 5.52728181,9.88303182 L5.52728181,9.88303182 Z" id="Fill-84" fill="#4F2D53"></path>
    </g>
</svg>