<?xml version="1.0" encoding="UTF-8"?>
<svg width="152px" height="20px" viewBox="0 0 148 20" version="1.1" xmlns="http://www.w3.org/2000/svg" xmlns:xlink="http://www.w3.org/1999/xlink">
    <!-- Generator: Sketch 48.2 (47327) - http://www.bohemiancoding.com/sketch -->
    <title>Group 2</title>
    <desc>Created with Sketch.</desc>
    <defs></defs>
    <g id="Page-1" stroke="none" stroke-width="1" fill="none" fill-rule="evenodd">
        <g id="Group-2" transform="translate(0.000000, -3.000000)" fill="#34CFBD">
            <text id="BLOC-JAMS" font-family="PTSans-Bold, PT Sans" font-size="24" font-weight="bold" letter-spacing="0.75">
                <tspan x="29" y="22">BLOC JAMS</tspan>
            </text>
            <path d="M19.4930954,16.068977 C20.6453966,12.5128291 19.7224887,8.56747751 17.0764637,5.92302566 C13.1767777,2.02565811 6.82845158,2.02565811 2.92876556,5.92302566 C0.282740573,8.56747751 -0.645502064,12.5288237 0.506799141,16.0796401 C0.192050201,16.6501166 0,17.2952349 0,17.9936688 C0,20.200933 1.79246854,21.9923359 4.00104585,21.9923359 C4.00104585,22.5468177 4.44916298,22.9946684 5.00397467,22.9946684 C5.55878637,22.9946684 6.0069035,22.5468177 6.0069035,21.9923359 L6.0069035,13.9950017 C6.0069035,13.4405198 5.55878637,12.9926691 5.00397467,12.9926691 C4.44916298,12.9926691 4.00104585,13.4405198 4.00104585,13.9950017 C3.32887015,13.9950017 2.70470699,14.1762746 2.1498953,14.4695102 C1.67510453,11.9050317 2.4753137,9.20726425 4.34246843,7.34121959 C7.46328419,4.22225925 12.5366103,4.22225925 15.6574261,7.34121959 C17.5299155,9.2125958 18.32479,11.9050317 17.8446645,14.4695102 C17.2898528,14.1762746 16.6710244,14.0003332 15.9988487,14.0003332 C15.9988487,13.4458514 15.5507315,12.9980007 14.9959198,12.9980007 C14.4411081,12.9980007 13.992991,13.4458514 13.992991,14.0003332 L13.992991,21.9976674 C13.992991,22.5521493 14.4411081,23 14.9959198,23 C15.5507315,23 15.9988487,22.5521493 15.9988487,21.9976674 C18.207426,21.9976674 19.9998945,20.2062646 19.9998945,17.9990003 C20.0052292,17.2899034 19.8078443,16.6394535 19.4930954,16.068977 Z" id="Shape-Copy" fill-rule="nonzero"></path>
        </g>
    </g>
</svg>
