<?xml version="1.0" encoding="UTF-8"?>
<svg width="35px" height="35px" viewBox="0 0 43 43" version="1.1" xmlns="http://www.w3.org/2000/svg" xmlns:xlink="http://www.w3.org/1999/xlink">
    <!-- Generator: Sketch 48.2 (47327) - http://www.bohemiancoding.com/sketch -->
    <title>Pause</title>
    <desc>Created with Sketch.</desc>
    <defs></defs>
    <g id="Desktop-Copy" stroke="none" stroke-width="1" fill="none" fill-rule="evenodd" transform="translate(-488.000000, -660.000000)">
        <g id="Player-Bar" transform="translate(0.000000, 650.000000)">
            <g id="Player-tools" transform="translate(459.000000, 10.000000)">
                <g id="Pause" transform="translate(29.000000, 0.000000)">
                    <path d="M15.1232996,28.8245477 C15.2016723,28.9469744 15.2910271,29 15.4033446,29 L18.5966554,29 C18.7084737,29 18.7983277,28.9469744 18.8767004,28.8245477 C18.955073,28.702121 19,28.5446039 19,28.3870867 L19,14.6300686 C19,14.4546163 18.955073,14.3150343 18.8767004,14.1926076 C18.7983277,14.0694011 18.7084737,14 18.5966554,14 L15.4033446,14 C15.2910271,14 15.2016723,14.0694011 15.1232996,14.1926076 C15.044927,14.3150343 15,14.4546163 15,14.6300686 L15,28.3870867 C15,28.5446039 15.044927,28.702121 15.1232996,28.8245477 L15.1232996,28.8245477 Z M23.2909227,28.8245477 C23.3692954,28.9469744 23.4591494,29 23.5714668,29 L26.7647777,29 C26.876596,29 26.96645,28.9469744 27.0448226,28.8245477 C27.1231953,28.702121 27.1681223,28.5446039 27.1681223,28.3870867 L27.1681223,14.6300686 C27.1681223,14.4546163 27.1231953,14.3150343 27.0448226,14.1926076 C26.96645,14.0694011 26.876596,14 26.7647777,14 L23.5714668,14 C23.4591494,14 23.3692954,14.0694011 23.2909227,14.1926076 C23.2125501,14.3150343 23.1681223,14.4546163 23.1681223,14.6300686 L23.1681223,28.3870867 C23.1681223,28.5446039 23.2125501,28.702121 23.2909227,28.8245477 L23.2909227,28.8245477 Z" id="Fill-84" fill="#34CFBD"></path>
                    <rect id="Rectangle-4" stroke="#34CFBD" transform="translate(21.266428, 21.433690) rotate(-45.000000) translate(-21.266428, -21.433690) " x="6.7664277" y="6.93368959" width="29" height="29"></rect>
                </g>
            </g>
        </g>
    </g>
</svg>
