<?xml version="1.0" encoding="UTF-8"?>
<svg width="15px" height="16px" viewBox="0 0 15 16" version="1.1" xmlns="http://www.w3.org/2000/svg" xmlns:xlink="http://www.w3.org/1999/xlink">
    <!-- Generator: Sketch 48.2 (47327) - http://www.bohemiancoding.com/sketch -->
    <title>Fill 134</title>
    <desc>Created with Sketch.</desc>
    <defs></defs>
    <g id="Desktop-Copy" stroke="none" stroke-width="1" fill="none" fill-rule="evenodd" transform="translate(-892.000000, -685.000000)">
        <g id="Player-Bar" transform="translate(0.000000, 650.000000)" fill="#34CFBD">
            <g id="Volume-Slider" transform="translate(892.000000, 35.000000)">
                <path d="M0.247,10.572 C0.404,10.729 0.584,10.819 0.808,10.819 L4.085,10.819 L8.26,14.993 C8.417,15.151 8.597,15.218 8.821,15.218 C9.046,15.218 9.225,15.151 9.382,14.993 C9.539,14.814 9.629,14.634 9.629,14.41 L9.629,0.785 C9.629,0.583 9.539,0.381 9.382,0.224 C9.225,0.067 9.046,0 8.821,0 C8.597,0 8.417,0.067 8.26,0.224 L4.085,4.399 L0.808,4.399 C0.584,4.399 0.404,4.489 0.247,4.646 C0.09,4.803 0,4.983 0,5.207 L0,10.011 C0,10.235 0.09,10.415 0.247,10.572 L0.247,10.572 Z M11.604,10.37 C11.762,10.527 11.941,10.617 12.166,10.617 C12.278,10.617 12.39,10.594 12.48,10.549 C13.063,10.325 13.535,9.921 13.871,9.382 C14.231,8.821 14.41,8.237 14.41,7.609 C14.41,6.98 14.231,6.374 13.871,5.836 C13.535,5.275 13.063,4.893 12.48,4.668 C12.39,4.624 12.278,4.601 12.166,4.601 C11.941,4.601 11.762,4.668 11.604,4.826 C11.447,4.983 11.358,5.185 11.358,5.409 C11.358,5.566 11.402,5.723 11.515,5.836 C11.604,5.97 11.739,6.06 11.874,6.15 C12.009,6.24 12.166,6.352 12.3,6.442 C12.435,6.554 12.57,6.689 12.66,6.891 C12.772,7.093 12.817,7.317 12.817,7.609 C12.817,7.901 12.772,8.125 12.66,8.327 C12.57,8.507 12.435,8.664 12.3,8.754 C12.166,8.866 12.009,8.956 11.874,9.045 C11.739,9.135 11.604,9.247 11.515,9.36 C11.402,9.494 11.358,9.629 11.358,9.808 C11.358,10.033 11.447,10.235 11.604,10.37 L11.604,10.37 Z" id="Fill-134"></path>
            </g>
        </g>
    </g>
</svg>